# xmcd
#
# Track frame offsets: 
#        150
#        16010
#        36333
#        51089
#        66296
#        83952
#        103320
#        117940
#        134238
#
# Disc length: 1999 seconds
#
# Revision: 0
# Processed by: cddbd v1.5.2PL0 Copyright (c) Steve Scherf et al.
# Submitted via: ExactAudioCopy v0.99pb3
#
DISCID=8007cd09
DTITLE=Will Scott - Keystone Crossing [DigiCD]
DYEAR=2011
DGENRE=Americana
TTITLE0=White River Rising
TTITLE1=Derry Down
TTITLE2=Just Ferry Me Over
TTITLE3=Right to Love
TTITLE4=It Ain't Gonna Rain
TTITLE5=Broken Arrow
TTITLE6=Last Rest Stop
TTITLE7=You Said Youd Take Me to Spain
TTITLE8=You are the One I Love
EXTD=
EXTT0=
EXTT1=
EXTT2=
EXTT3=
EXTT4=
EXTT5=
EXTT6=
EXTT7=
EXTT8=
PLAYORDER=
